<?xml version="1.0" encoding="utf-8"?>
<!-- Generator: Adobe Illustrator 23.0.0, SVG Export Plug-In . SVG Version: 6.00 Build 0)  -->
<svg version="1.1" id="svg" xmlns="http://www.w3.org/2000/svg" xmlns:xlink="http://www.w3.org/1999/xlink" x="0px" y="0px"
	 viewBox="0 0 400 400" style="enable-background:new 0 0 400 400;" xml:space="preserve">
<style type="text/css">
	.st0{opacity:0;fill-rule:evenodd;clip-rule:evenodd;fill:#FAFCFB;}
	.st1{fill-rule:evenodd;clip-rule:evenodd;fill:#6DD8F5;}
</style>
<g id="svgg">
	<path id="path0" class="st0" d="M0,200v200h200h200V200V0H200H0V200 M203.1,21.4c10.8,1.3,18,4.7,26.4,12.4
		c4.9,4.5,8.6,10,11.6,17.4c0.7,1.8,1.5,4.1,1.6,5c0.1,0.9,0.5,2.6,0.8,3.7c0.7,2.6,0.7,10.9,0,14c-0.3,1.3-0.7,3.4-0.8,4.6
		s-0.6,2.9-1,3.8c-0.4,0.9-1,2.4-1.4,3.3c-1.8,5.2-9.6,15.4-13.9,18.1c-1,0.7-2,1.5-2.1,1.7c-0.1,0.3-2.4,1.6-5.1,2.9
		c-6.8,3.3-7.3,3.5-10.7,4.1c-1.6,0.3-4,0.8-5.3,1.1c-2.7,0.7-9.4,0.7-11,0.1c-0.6-0.2-2.7-0.7-4.7-1c-2-0.3-4.8-1.1-6.3-1.8
		c-1.5-0.6-2.9-1.2-3.2-1.2c-1.5,0-9.2-5.7-13.3-9.8c-4.5-4.5-5.2-5.5-7.7-10.2c-0.8-1.4-1.5-2.8-1.7-3c-4.1-5.6-5.1-23.6-1.8-34
		c4.9-15.5,20.7-29.1,36-30.9c1.7-0.2,3.2-0.5,3.3-0.6C193.1,20.6,198,20.8,203.1,21.4 M192.4,43.2c-0.3,0.2-1.7,0.8-3.1,1.2
		c-7.1,2.4-13.8,9.4-15.2,16.1c-0.3,1.5-0.8,3.1-1,3.5c-2,3.7,1.7,15.1,6.5,19.9c23,23.2,57.6-10,35.2-33.8
		C210,45,196.2,40.7,192.4,43.2 M318.2,88.8c1.1,0.2,3.4,0.5,5.2,0.8c2.8,0.4,5.1,1.1,10.1,3c5.7,2.1,19.3,13.1,19.3,15.6
		c0,0.3,0.1,0.7,0.3,0.8c0.6,0.2,3,4.1,3.5,5.7c0.3,0.9,0.7,1.8,0.9,2c2.5,3.2,4,16.2,2.9,25.8c-0.6,5.4-5.1,16.7-7.1,17.9
		c-0.4,0.3-0.9,1-1.1,1.6c-0.9,4.1-14.9,14.4-22.6,16.7c-1,0.3-2.6,0.8-3.6,1.2c-3.6,1.4-18.8,1.1-24-0.5
		c-20.4-6.1-33.6-23.6-33.6-44.5c0-6.6,1.9-15.3,4.4-20c0.2-0.3,0.8-1.6,1.5-2.8c2.4-4.6,7.2-10.1,12.6-14.5
		C294.2,91.4,309.1,87.3,318.2,88.8 M91.6,92c2.1,0.2,4.4,0.6,5.2,0.9c0.8,0.3,2.8,1.2,4.6,1.9c6.5,2.7,15.8,10.1,18.8,15
		c0.4,0.6,1,1.5,1.4,2c5.4,6.2,8.4,20.4,7,32.4c-3.7,30.4-39,48.9-66.2,34.7c-4.7-2.5-5-2.6-8.1-5C34.9,159.1,30.6,130,45,110.6
		c4.6-6.2,12.9-13.1,17.4-14.4c0.5-0.2,1.5-0.6,2.2-1C69.6,92.2,80.2,90.9,91.6,92 M306.7,111.6c-22.6,8.2-21.5,40.2,1.7,46.7
		c16.2,4.5,32-8.8,30.6-25.7c-0.3-4.3-2.6-10.2-4.9-12.7c-0.9-0.9-1.7-2-1.9-2.3c-0.2-0.3-1.5-1.4-2.9-2.3c-1.4-0.9-2.5-1.8-2.5-2
		s-1.8-0.9-3.9-1.6C317.4,109.9,311.4,109.9,306.7,111.6 M80.8,112.9c-11.3,1.3-20.6,10.1-22,20.7c-0.4,3.2-0.1,9.6,0.4,10.3
		c0.2,0.2,0.6,1.3,1,2.3c0.9,2.6,3.7,6.9,5.6,8.6c2.8,2.4,6.5,4.9,8.2,5.4c1,0.3,2.5,0.9,3.5,1.2c7.7,2.9,20-2.3,25.8-10.9
		C114.6,134.3,100.4,110.6,80.8,112.9 M222.5,141.4c18.5,4.7,14.7,31.5-4.3,30.9c-7.4-0.2-11.2-2.7-14.3-9.3c-2.8-6-0.1-16.1,5.2-19
		c0.6-0.3,1.6-0.9,2.2-1.3C213.7,141,218.8,140.5,222.5,141.4 M177.9,143.9c9.4,2.1,13.5,15.2,7.6,24c-8.2,12.2-27.9,6.8-29-7.9
		c-0.3-4.6,2.6-11.6,5.6-13.6c0.7-0.5,1.7-1.1,2.2-1.5C166.5,143.3,173.1,142.8,177.9,143.9 M248.8,181.6c3.7,1.6,5.6,3.2,7.9,6.8
		l1.9,3l0,4.4c0,15.2-16.7,22-27.2,11.2c-3.3-3.4-4-5.3-4-11.2l0-4.4l1.8-3.1c2.2-3.8,5.2-6.1,10-7.7
		C241.3,180,246.1,180.4,248.8,181.6 M157.7,183.7c12.9,5.3,12.4,25-0.9,29.6c-15.6,5.3-27.9-12.5-17.5-25.3
		C143.5,182.8,151.3,181,157.7,183.7 M328.3,217.4c7.5,1.9,13.6,4.9,19.1,9.5c2.6,2.2,3.3,2.9,5.4,5.4c4.3,5,9.2,15.2,10,20.9
		c1.3,9.1,1.3,9.5,0.6,14.3c-1.1,8-4.6,17.8-7.7,20.9c-0.5,0.6-1.8,2.1-2.7,3.5c-1.9,2.7-8,8.1-11,9.8c-4.8,2.7-8,4.1-12,5.3
		c-5.2,1.5-5.2,1.5-12.3,1.5c-9.2,0-13-0.7-18.8-3.4c-1.1-0.5-2.2-1-2.3-1c-0.6,0-7.2-4.2-8.4-5.4c-0.7-0.7-2.1-1.9-3-2.8
		c-1-0.9-2.6-2.7-3.6-4c-1-1.3-2.3-3-2.9-3.6c-4.5-5.6-8.5-19.7-7.7-27.8c0.9-9.2,1.6-11.9,4.7-18.3c2.6-5.4,4.5-8,8.9-12.3
		c5.2-5.1,10.8-8.6,17-10.7c2.5-0.9,4.9-1.4,12.4-2.8C316.5,215.8,324.3,216.4,328.3,217.4 M228.2,221.2c9.6,4.4,12.6,15.2,6.7,23.6
		c-9,13-29.4,6.2-28.8-9.6C206.5,223.9,218.1,216.5,228.2,221.2 M92.8,222c1.4,0.2,3,0.7,3.6,1s2.1,0.7,3.4,1
		c7.4,1.3,20.2,10.8,24.5,18c0.7,1.2,1.7,2.8,2.1,3.5c6.3,10,7.1,25.2,2.2,39.7c-0.6,1.6-1.3,3.3-1.5,3.6c-0.3,0.3-1,1.5-1.6,2.5
		c-2.5,4.3-9,11.7-11.5,13c-0.7,0.4-1.6,1-1.8,1.4c-1,1.4-10.7,5.9-14.9,6.9c-11.5,2.6-26.3,1-33.2-3.7c-0.5-0.4-1.8-1.2-2.8-1.8
		c-3.1-1.9-4.5-3-8.2-6.6c-3.1-3-8.2-9.6-8.2-10.6c0-0.2-0.4-0.8-0.8-1.4c-4.9-6.9-6.2-25.4-2.6-35.6c3.4-9.6,9.8-18.1,17.2-23.1
		c2.7-1.8,10-5.7,10.8-5.7c0.3,0,1.6-0.4,2.8-0.8C76.9,221.6,86.8,221.1,92.8,222 M182.3,223.1c13.1,5.8,12.2,25.1-1.5,29.4
		c-6.4,2-13,0.5-16.8-3.8C152.6,235.4,166.4,216.2,182.3,223.1 M311.2,238.6c-3.8,1.1-6.6,2.3-6.9,2.8c-0.2,0.3-1.1,1.1-2,1.7
		c-7,4.8-10.7,15-8.9,24c6,28.8,48.2,24.1,48.2-5.5C341.6,246.5,325.5,234.3,311.2,238.6 M82.2,243.2c-0.9,0.1-1.8,0.4-2.1,0.6
		c-0.3,0.2-1.4,0.5-2.4,0.7c-4,0.8-11.4,6.8-13.6,11.1c-0.3,0.6-0.7,1.2-0.8,1.3c-1.1,0.8-2.9,13.5-2.1,14.5
		c0.2,0.3,0.7,1.5,1.1,2.8c4.4,15.3,21.6,22.6,35.2,15c12.1-6.8,16.3-23.3,8.7-34.8C100.8,246.3,90.9,241.7,82.2,243.2 M211.9,287.6
		c2.7,0.5,5.8,1.3,7.4,2c1.5,0.7,2.9,1.2,3.1,1.2c1.2,0,8.9,5.5,12.8,9c6.6,6.2,11.8,15.6,12.9,23.4c1.2,8.2,1.1,16.1-0.2,20.7
		c-0.3,1-0.9,3.1-1.3,4.7c-2.6,9.3-11.4,19.4-22.1,25.5c-5.2,3-17.8,5.9-23.4,5.3c-9.4-0.9-15.1-2.5-20.3-5.7
		c-1.2-0.8-2.4-1.4-2.7-1.4c-1.1,0-7.8-6-11.4-10.2c-1.9-2.2-5.8-8.6-6.5-10.6c-0.4-1-1-2.6-1.3-3.5c-3.4-8-3.5-20.1-0.2-29.4
		c0.5-1.4,1.1-3.3,1.4-4.1c0.7-2.2,5.2-9.4,7.4-11.9c3.2-3.5,8.9-8.3,11.9-9.9c1.2-0.6,2.5-1.3,2.9-1.6
		C189.4,287.2,201.1,285.7,211.9,287.6 M198.6,308.7c-7.4,2-12,5.1-17.1,11.8c-1.7,2.2-2.9,7.4-2.9,13v5.7l1.9,3.7
		c3.1,6,10.3,13.1,13.3,13.1c0.3,0,1.9,0.4,3.6,0.9c4.7,1.3,10.8,0.6,15.5-1.8c2.3-1.1,7-4.3,7-4.7c0-0.2,0.7-1,1.5-1.9
		c1.9-2,4.1-6.5,5.3-11.2l1-3.7l-0.7-3.7c-1.9-9.9-7.9-17.2-16.9-20.3C207.8,308.7,200.4,308.2,198.6,308.7"/>
	<path id="path1" class="st1" d="M192.7,21c-0.1,0.1-1.6,0.4-3.3,0.6c-15.2,1.9-31,15.5-36,30.9c-3.3,10.4-2.4,28.4,1.8,34
		c0.2,0.2,0.9,1.6,1.7,3c2.5,4.7,3.3,5.7,7.7,10.2c4.1,4.1,11.8,9.8,13.3,9.8c0.2,0,1.7,0.5,3.2,1.2c1.5,0.6,4.4,1.4,6.3,1.8
		c2,0.3,4.1,0.8,4.7,1c1.6,0.6,8.3,0.5,11-0.1c1.2-0.3,3.6-0.8,5.3-1.1c3.4-0.6,3.9-0.8,10.7-4.1c2.7-1.3,5-2.6,5.1-2.9
		c0.1-0.3,1-1.1,2.1-1.7c4.3-2.8,12.1-12.9,13.9-18.1c0.3-1,0.9-2.5,1.4-3.3c0.4-0.9,0.9-2.6,1-3.8s0.5-3.3,0.8-4.6
		c0.7-3.2,0.7-11.5,0-14c-0.3-1.1-0.7-2.7-0.8-3.7c-0.3-1.9-2.4-7.3-3.9-10.1c-2.2-4.1-2.9-5.1-5-7.6c-6.3-7.8-15.8-13.9-24.7-16.1
		C205.3,21.3,193.3,20.4,192.7,21 M203.5,43.8c4.2,1,8.7,3.6,11.4,6.4c22.4,23.8-12.2,57-35.2,33.8c-4.8-4.8-8.5-16.2-6.5-19.9
		c0.2-0.4,0.6-2,1-3.5c1.4-6.7,8.1-13.8,15.2-16.1c1.4-0.5,2.7-1,3.1-1.2C193.5,42.5,199.4,42.8,203.5,43.8 M309.7,88.8
		c-7.2,0.7-11.5,2.1-18.3,5.8c-6.5,3.6-13.7,10.9-17.2,17.4c-0.6,1.2-1.3,2.5-1.5,2.8c-2.5,4.7-4.4,13.4-4.4,20
		c0,20.9,13.3,38.4,33.6,44.5c5.2,1.6,20.4,1.9,24,0.5c1-0.4,2.6-0.9,3.6-1.2c7.7-2.3,21.7-12.6,22.6-16.7c0.1-0.6,0.6-1.4,1.1-1.6
		c2-1.2,6.5-12.5,7.1-17.9c1.1-9.6-0.3-22.6-2.9-25.8c-0.2-0.2-0.6-1.1-0.9-2c-0.6-1.6-3-5.5-3.5-5.7c-0.2-0.1-0.3-0.4-0.3-0.8
		c0-2.4-13.6-13.4-19.3-15.6c-5-1.9-7.3-2.6-10.1-3c-1.8-0.3-4.1-0.6-5.2-0.8C315.8,88.4,314.1,88.4,309.7,88.8 M78.6,91.7
		c-4.2,0.3-11.9,2.2-14,3.5c-0.7,0.4-1.6,0.8-2.2,1c-7.8,2.3-18.6,13.8-22.7,24.2c-8.1,20.3,0.6,46.4,18.8,56.4
		c27.2,14.9,56.6,4.8,68-23.4c4.9-12.2,2.5-33.1-4.8-41.6c-0.4-0.4-1-1.3-1.4-2c-3-4.9-12.4-12.3-18.8-15c-1.8-0.7-3.8-1.6-4.6-1.9
		C94.4,91.9,84.9,91.2,78.6,91.7 M322.9,111.7c2.2,0.7,3.9,1.4,3.9,1.6s1.1,1.1,2.5,2c1.4,0.9,2.7,2,2.9,2.3
		c0.2,0.3,1.1,1.4,1.9,2.3c7.1,7.7,6.3,23.4-1.5,31.5c-13.8,14.3-37.7,7.7-41.6-11.6C287.1,121,304.4,105.7,322.9,111.7 M89.8,113.9
		c19.8,5.7,23.8,31.8,6.6,43.8c-4.8,3.4-14.5,5.2-18.8,3.6c-1-0.4-2.6-0.9-3.5-1.2c-1.8-0.6-5.4-3-8.2-5.4c-1.9-1.7-4.7-6-5.6-8.6
		c-0.4-1.1-0.8-2.1-1-2.3c-0.6-0.7-0.9-7.1-0.4-10.3C60.7,119.2,75.5,109.8,89.8,113.9 M214.7,141.4c-1.3,0.3-2.8,0.8-3.4,1.2
		c-0.6,0.4-1.6,1-2.2,1.3c-3.4,1.9-6,7.1-6.2,12.7c-0.6,14.1,17.3,21.5,27.2,11.2C241.2,156.3,230.6,137.9,214.7,141.4 M167.1,143.8
		c-1.1,0.3-2.3,0.8-2.8,1.2s-1.5,1-2.2,1.5c-3,1.9-5.9,8.9-5.6,13.6c0.7,9.5,9.3,15.9,18.9,14.2c14-2.5,17.7-20.6,5.7-28.9
		C178.5,143.5,171,142.7,167.1,143.8 M239.2,180.7c-4.9,1.6-7.9,3.9-10,7.7l-1.8,3.1l0,4.4c0,5.9,0.7,7.8,4,11.2
		c10.5,10.9,27.3,4,27.2-11.2l0-4.4l-1.9-3C252.9,182.3,244.9,178.8,239.2,180.7 M147,183c-11.3,3.2-15.4,17.9-7.2,26
		c6.9,6.8,15.5,7.1,22.3,1C174.4,198.9,162.9,178.5,147,183 M314,216.2c-12.8,2.5-14.3,3-21.6,7.3c-10.5,6.2-19,18.7-20.6,30.2
		c-1,7.4-1.1,9.1-0.4,14.6c0.9,7.2,4.1,15.9,7.3,19.9c0.5,0.7,1.8,2.3,2.9,3.6c1,1.3,2.7,3.1,3.6,4c1,0.9,2.3,2.1,3,2.8
		c1.2,1.1,7.8,5.4,8.4,5.4c0.1,0,1.2,0.4,2.3,1c5.7,2.7,9.6,3.4,18.8,3.4c7.1,0,7.2,0,12.3-1.5c4.1-1.2,7.2-2.6,12-5.3
		c3-1.7,9-7.1,11-9.8c1-1.4,2.2-2.9,2.7-3.5c3-3.1,6.6-12.9,7.7-20.9c0.6-4.8,0.6-5.2-0.6-14.3c-0.8-5.7-5.7-15.9-10-20.9
		c-2.2-2.5-2.8-3.2-5.4-5.4C338.6,219.5,323.1,214.5,314,216.2 M216,220.9c-18.7,7.9-8.6,35.9,10.7,29.9c14.1-4.3,15-23.4,1.5-29.7
		C225.1,219.8,219,219.6,216,220.9 M76.4,222c-1,0.2-2.8,0.7-4.1,1.2c-1.3,0.4-2.6,0.8-2.8,0.8c-0.8,0-8.1,3.8-10.8,5.7
		c-7.5,5-13.8,13.5-17.2,23.1c-3.7,10.2-2.3,28.8,2.6,35.6c0.4,0.6,0.8,1.2,0.8,1.4c0,1,5.1,7.6,8.2,10.6c3.7,3.6,5.1,4.7,8.2,6.6
		c1,0.6,2.3,1.4,2.8,1.8c6.9,4.7,21.7,6.3,33.2,3.7c4.3-1,13.9-5.4,14.9-6.9c0.3-0.4,1.1-1,1.8-1.4c2.5-1.3,9.1-8.7,11.5-13
		c0.6-1,1.3-2.1,1.6-2.5c0.6-0.7,2.2-5.1,3.6-10.4c1.6-5.6,1.6-16.8,0-22c-1.3-4.5-3.2-9.2-4.3-10.9c-0.5-0.7-1.4-2.3-2.1-3.5
		c-4.3-7.3-17.1-16.7-24.5-18c-1.3-0.2-2.9-0.7-3.4-1C94,221.7,81.2,221.1,76.4,222 M172.1,222c-13.1,2.8-16.6,21.6-5.5,28.9
		c8.5,5.6,20.4,1.7,23.9-7.7C195,231.3,184.6,219.4,172.1,222 M322.8,238.4c26.2,5.9,24.4,44-2.2,47.7c-24.5,3.4-38.4-29.1-18.3-43
		c0.9-0.6,1.8-1.4,2-1.7c0.3-0.5,3.1-1.7,6.9-2.8C313.3,238,320.3,237.9,322.8,238.4 M91.1,243.8c16.3,3.8,24.1,22.9,15,36.8
		c-11.7,17.9-38.1,13.9-44-6.5c-0.4-1.2-0.8-2.5-1.1-2.8c-0.8-1,1.1-13.6,2.1-14.5c0.1-0.1,0.5-0.7,0.8-1.3
		c2.2-4.3,9.7-10.4,13.6-11.1c1.1-0.2,2.2-0.5,2.4-0.7C81.9,242.6,86.3,242.7,91.1,243.8 M194.8,287.4c-4.8,0.9-10.2,2.5-12.6,3.9
		c-0.4,0.3-1.7,1-2.9,1.6c-3,1.6-8.7,6.4-11.9,9.9c-2.2,2.5-6.7,9.8-7.4,11.9c-0.3,0.8-0.9,2.7-1.4,4.1c-3.3,9.3-3.2,21.4,0.2,29.4
		c0.4,0.9,1,2.4,1.3,3.5c0.7,2,4.6,8.3,6.5,10.6c3.6,4.2,10.3,10.2,11.4,10.2c0.2,0,1.4,0.6,2.7,1.4c5.2,3.2,10.9,4.8,20.3,5.7
		c5.6,0.5,18.2-2.3,23.4-5.3c10.7-6.1,19.4-16.3,22.1-25.5c0.4-1.5,1-3.6,1.3-4.7c1.3-4.6,1.4-12.5,0.2-20.7
		c-1.1-7.8-6.3-17.2-12.9-23.4c-3.8-3.6-11.5-9-12.8-9c-0.2,0-1.6-0.5-3.1-1.2C213,286.9,202.8,285.9,194.8,287.4 M210.1,309.6
		c9,3.2,15,10.4,16.9,20.3l0.7,3.7l-1,3.7c-1.2,4.7-3.4,9.3-5.3,11.2c-0.8,0.8-1.5,1.7-1.5,1.9c0,0.4-4.7,3.6-7,4.7
		c-4.7,2.3-10.8,3-15.5,1.8c-1.7-0.5-3.3-0.9-3.6-0.9c-3.1,0-10.3-7.1-13.3-13.1l-1.9-3.7v-5.7c0-5.7,1.1-10.8,2.9-13
		c5.2-6.6,9.8-9.8,17.1-11.8C200.4,308.2,207.8,308.7,210.1,309.6"/>
</g>
</svg>
