<?xml version="1.0" encoding="utf-8"?>
<!-- Generator: Adobe Illustrator 23.0.0, SVG Export Plug-In . SVG Version: 6.00 Build 0)  -->
<svg version="1.1" id="Слой_1" xmlns="http://www.w3.org/2000/svg" xmlns:xlink="http://www.w3.org/1999/xlink" x="0px" y="0px"
	 viewBox="0 0 587 150" style="enable-background:new 0 0 587 150;" xml:space="preserve">
<style type="text/css">
	.st0{fill:none;}
	.st1{enable-background:new    ;}
	.st2{fill:#FFFFFF;}
	.st3{opacity:0;fill-rule:evenodd;clip-rule:evenodd;fill:#FAFCFB;}
	.st4{fill-rule:evenodd;clip-rule:evenodd;fill:#6DD8F5;}
</style>
<rect x="172" y="-1" class="st0" width="415" height="84"/>
<g class="st1">
	<path class="st2" d="M217.9,11.9c-4.2,0-8.1,0.7-11.8,2c-3.7,1.3-6.8,3.3-9.5,6c-2.7,2.6-4.8,5.9-6.4,9.8
		c-1.6,3.9-2.3,8.5-2.3,13.7c0,5.2,0.7,9.6,2.2,13.4c1.4,3.8,3.5,6.9,6.1,9.4c2.7,2.5,5.8,4.3,9.6,5.5c3.7,1.2,7.9,1.8,12.5,1.8
		c1.3,0,2.6-0.1,4-0.2c1.4-0.1,2.8-0.3,4.2-0.6c1.4-0.2,2.8-0.5,4.2-0.8c1.3-0.3,2.5-0.7,3.6-1V79c-2.2,0.9-4.8,1.5-7.7,2
		c-2.9,0.5-5.9,0.7-9,0.7c-6.3,0-11.8-0.9-16.6-2.6s-8.9-4.2-12.2-7.5c-3.3-3.3-5.8-7.2-7.4-11.9c-1.7-4.7-2.5-10-2.5-16
		c0-5.8,0.9-11.2,2.7-16.1c1.8-4.9,4.3-9.1,7.7-12.6c3.3-3.5,7.4-6.3,12.2-8.2c4.8-2,10.1-2.9,16.1-2.9c1.6,0,3.1,0.1,4.7,0.2
		c1.5,0.1,3,0.3,4.4,0.6c1.4,0.2,2.7,0.5,3.9,0.9c1.2,0.3,2.2,0.7,3.1,1.1v8.1c-2.3-0.7-4.8-1.4-7.4-1.9
		C223.3,12.2,220.6,11.9,217.9,11.9z"/>
	<path class="st2" d="M258.5,49.2v31.1h-9.2V5.2h19.5c3.3,0,6.1,0.1,8.4,0.4c2.3,0.2,4.4,0.6,6.3,1.2c5.2,1.4,9.2,3.8,12,7.3
		c2.8,3.4,4.2,7.7,4.2,12.8c0,3-0.5,5.7-1.5,8.1c-1,2.4-2.3,4.5-4.1,6.2c-1.8,1.8-3.9,3.2-6.3,4.3c-2.5,1.1-5.2,1.9-8.2,2.5v0.2
		l22.2,32.1h-9.2l-23.1-31.1H258.5z M258.5,13.4v27.5h9c2.8,0,5.2-0.1,7.2-0.3c2-0.2,3.8-0.5,5.3-1c3.2-1,5.6-2.5,7.4-4.7
		c1.7-2.1,2.6-4.9,2.6-8.4c0-3.2-0.9-5.8-2.5-7.8c-1.6-2-3.8-3.4-6.7-4.2c-1.3-0.4-3-0.7-4.8-0.9c-1.9-0.2-4.2-0.3-7.1-0.3H258.5z"
		/>
	<path class="st2" d="M346.6,50.1v30.2h-9.2V50.1L310.1,5.2h10l21.8,36.5h0.3l21.8-36.5h10L346.6,50.1z"/>
	<path class="st2" d="M394.9,80.3h-9.2V5.2h20.8c3.1,0,6,0.2,8.6,0.6c2.6,0.4,5.1,1,7.3,1.7c4.5,1.6,7.9,4,10.2,7.2
		c2.3,3.2,3.5,7.1,3.5,11.8c0,3.8-0.8,7.2-2.3,10.1c-1.5,2.9-3.7,5.3-6.6,7.3c-2.9,1.9-6.4,3.4-10.5,4.4c-4.1,1-8.8,1.5-14,1.5
		c-2.5,0-5.1-0.1-7.8-0.3V80.3z M394.9,41.1c1.2,0.1,2.5,0.3,3.9,0.3c1.3,0.1,2.6,0.1,3.8,0.1c4.3,0,8-0.3,11-1s5.5-1.7,7.4-2.9
		c1.9-1.3,3.3-2.9,4.2-4.7c0.9-1.9,1.3-4,1.3-6.3c0-2.9-0.7-5.3-2.1-7.2c-1.4-1.9-3.4-3.3-6-4.3c-1.6-0.6-3.5-1-5.6-1.3
		c-2.1-0.2-4.5-0.4-7.3-0.4h-10.6V41.1z"/>
	<path class="st2" d="M478.3,80.3h-9.2V13.4H444V5.2h59.4v8.3h-25.1V80.3z"/>
	<path class="st2" d="M579.5,42.8c0,5.7-0.8,10.9-2.5,15.7c-1.6,4.8-4,8.9-7,12.3c-3,3.4-6.7,6.1-11,8.1s-9.1,2.9-14.4,2.9
		c-5.5,0-10.4-1-14.8-2.9s-8-4.6-11-8.1c-3-3.4-5.3-7.5-6.9-12.3c-1.6-4.8-2.4-10-2.4-15.7c0-5.7,0.8-11,2.5-15.8
		c1.7-4.8,4-8.9,7-12.3c3-3.4,6.7-6.1,11-8.1c4.3-1.9,9.1-2.9,14.5-2.9c5.5,0,10.4,1,14.7,2.9c4.3,1.9,8,4.6,11,8.1
		c3,3.4,5.3,7.6,6.9,12.3C578.7,31.8,579.5,37.1,579.5,42.8z M570.4,42.8c0-5.1-0.7-9.5-2-13.4c-1.3-3.9-3.2-7.1-5.5-9.7
		c-2.3-2.6-5.1-4.5-8.2-5.9c-3.2-1.3-6.6-2-10.2-2c-3.6,0-7,0.7-10.2,2c-3.2,1.3-5.9,3.3-8.2,5.9c-2.3,2.6-4.2,5.8-5.5,9.7
		c-1.3,3.9-2,8.3-2,13.4s0.7,9.5,2,13.3c1.3,3.8,3.2,7,5.5,9.6c2.3,2.6,5.1,4.5,8.2,5.8s6.6,2,10.2,2c3.6,0,7-0.7,10.1-2
		c3.1-1.3,5.8-3.3,8.2-5.8c2.3-2.6,4.2-5.8,5.5-9.6C569.7,52.3,570.4,47.8,570.4,42.8z"/>
</g>
<g class="st1">
	<path class="st2" d="M213.9,94.2h-9.4V119h-2V94.2h-9.3v-2h20.6V94.2z"/>
	<path class="st2" d="M300.1,119H298l-2.7-7.1c-0.3-0.7-0.5-1.3-0.9-1.9c-0.3-0.6-0.7-1.1-1.1-1.6c-0.4-0.4-0.9-0.8-1.5-1.1
		c-0.5-0.3-1.2-0.4-1.9-0.4h-9.4V119h-2V92.3h12c1.1,0,2.2,0.1,3.3,0.3c1,0.2,2,0.6,2.8,1.1c0.8,0.5,1.5,1.2,2,2.2
		c0.5,0.9,0.7,2.1,0.7,3.5c0,0.9-0.1,1.7-0.3,2.5c-0.2,0.8-0.6,1.5-1,2.1c-0.4,0.6-1,1.1-1.7,1.6c-0.7,0.4-1.5,0.7-2.4,0.9
		c0.5,0.4,0.9,0.8,1.2,1.1c0.3,0.4,0.6,0.7,0.8,1.1c0.2,0.4,0.4,0.9,0.6,1.3c0.2,0.5,0.4,1,0.6,1.7L300.1,119z M280.6,105h9.3
		c1.3,0,2.4-0.1,3.4-0.3c0.9-0.2,1.7-0.5,2.3-1c0.6-0.4,1.1-1,1.4-1.7c0.3-0.7,0.4-1.6,0.4-2.6c0-1.8-0.6-3.2-1.7-3.9
		c-1.2-0.8-2.9-1.2-5.2-1.2h-9.8V105z"/>
	<path class="st2" d="M387.2,119h-2.3l-3.3-8.6h-13.2c-0.5,1.4-1,2.8-1.5,4.3c-0.6,1.5-1.1,2.9-1.6,4.3h-2.1
		c0.9-2.3,1.7-4.6,2.6-6.8c0.9-2.2,1.7-4.4,2.6-6.6c0.8-2.2,1.7-4.4,2.6-6.6c0.9-2.2,1.7-4.5,2.6-6.8h2.8L387.2,119z M381,108.9
		L374.8,94l-5.9,14.9H381z"/>
	<path class="st2" d="M473,105.4c0,9-4.5,13.6-13.5,13.6h-8.1V92.3h8.1c4.5,0,7.9,1.1,10.1,3.3C471.8,97.7,473,101,473,105.4z
		 M470.9,105.4c0-1.8-0.2-3.3-0.5-4.7c-0.3-1.4-1-2.6-1.8-3.5c-0.9-1-2.1-1.7-3.5-2.2c-1.5-0.5-3.3-0.8-5.6-0.8h-6.1V117h6.1
		c2.2,0,4.1-0.3,5.6-0.8c1.5-0.5,2.6-1.3,3.5-2.3c0.9-1,1.5-2.2,1.9-3.6C470.7,108.9,470.9,107.3,470.9,105.4z"/>
	<path class="st2" d="M558.1,119h-19.3V92.3h18.7v2h-16.7v9.9h15.6v2h-15.6v11h17.4V119z"/>
</g>
<g class="st1">
	<path class="st2" d="M190,132.5h1.3c0.2,0,0.3,0.1,0.3,0.3v13.5c0,0.2-0.1,0.3-0.3,0.3H190c-0.2,0-0.3-0.1-0.3-0.3v-13.5
		C189.7,132.6,189.8,132.5,190,132.5z"/>
	<path class="st2" d="M220.7,146.2v-6.7c0-1.9,1.3-3.3,3.1-3.3s3.1,1.4,3.1,3.3v6.7c0,0.2-0.1,0.3-0.3,0.3h-1.2
		c-0.2,0-0.3-0.1-0.3-0.3v-6.7c0-0.9-0.5-1.6-1.4-1.6c-0.9,0-1.4,0.6-1.4,1.6v6.7c0,0.2-0.1,0.3-0.3,0.3h-1.2
		C220.8,146.5,220.7,146.4,220.7,146.2z"/>
	<path class="st2" d="M260.7,136.5h1.2c0.2,0,0.3,0.1,0.2,0.3l-2.3,9.1c-0.1,0.5-0.4,0.7-0.9,0.7h-0.8c-0.5,0-0.8-0.2-0.9-0.7
		l-2.3-9.1c0-0.2,0-0.3,0.2-0.3h1.2c0.2,0,0.3,0.1,0.3,0.2l1.8,8.2l1.8-8.2C260.4,136.6,260.5,136.5,260.7,136.5z"/>
	<path class="st2" d="M290,143.4v-3.9c0-1.9,1.3-3.2,3.2-3.2c1.9,0,3.2,1.3,3.2,3.2c0,1.8-1.3,3-3.2,3h-1.5v1c0,0.9,0.5,1.6,1.5,1.6
		c0.8,0,1.4-0.6,1.4-1.5c0-0.2,0.1-0.3,0.3-0.3h1.2c0.2,0,0.3,0.1,0.3,0.3c-0.1,1.9-1.4,3.1-3.2,3.1
		C291.3,146.7,290,145.4,290,143.4z M293.2,140.9c0.9,0,1.5-0.6,1.5-1.4c0-1-0.6-1.6-1.5-1.6c-0.9,0-1.5,0.6-1.5,1.6v1.4H293.2z"/>
	<path class="st2" d="M324.7,143.5c0-0.2,0.1-0.3,0.3-0.3h1.2c0.1,0,0.3,0.1,0.3,0.3c0.1,1,0.6,1.6,1.6,1.6c0.9,0,1.4-0.5,1.4-1.2
		c0-2-4.6-1.5-4.6-4.8c0-1.6,1.2-2.8,3-2.8c2.1,0,3.1,1.4,3.1,2.9c0,0.1-0.1,0.3-0.3,0.3h-1.2c-0.2,0-0.3-0.1-0.3-0.3
		c-0.1-0.8-0.5-1.3-1.4-1.3c-0.8,0-1.4,0.5-1.4,1.2c0,1.9,4.6,1.4,4.6,4.7c0,1.6-1.2,2.9-3.1,2.9
		C325.9,146.7,324.7,145.3,324.7,143.5z"/>
	<path class="st2" d="M364.1,145.2v1.1c0,0.2-0.1,0.3-0.3,0.3h-0.3c-2,0-3.2-1.3-3.2-3.5v-5h-1.1c-0.2,0-0.3-0.1-0.3-0.3v-1
		c0-0.2,0.1-0.3,0.3-0.3h1.1v-2.6c0-0.2,0.1-0.3,0.3-0.3h1.2c0.2,0,0.3,0.1,0.3,0.3v2.6h1.5c0.2,0,0.3,0.1,0.3,0.3v1
		c0,0.2-0.1,0.3-0.3,0.3H362v5c0,1.3,0.5,1.9,1.5,1.9h0.2C364,144.9,364.1,145,364.1,145.2z"/>
	<path class="st2" d="M423.7,143V136c0-2.2,1.4-3.7,3.5-3.7c2,0,3.4,1.5,3.4,3.6c0,0.2-0.1,0.3-0.3,0.3h-1.3c-0.2,0-0.3-0.1-0.3-0.3
		c-0.1-1.2-0.7-1.9-1.6-1.9c-1,0-1.6,0.7-1.6,1.9v7.2c0,1.2,0.7,1.9,1.7,1.9c1,0,1.7-0.7,1.7-1.8v-2.7h-1.4c-0.2,0-0.3-0.1-0.3-0.3
		v-1.1c0-0.2,0.1-0.3,0.3-0.3h2.4c0.5,0,0.8,0.3,0.8,0.8v3.4c0,2.1-1.4,3.6-3.5,3.6S423.7,145.2,423.7,143z"/>
	<path class="st2" d="M459.3,146.2V140c0-2.2,1.4-3.5,3.4-3.5h0.7c0.2,0,0.3,0.1,0.3,0.3v1.1c0,0.2-0.1,0.3-0.3,0.3h-0.7
		c-1,0-1.7,0.7-1.7,1.7v6.4c0,0.2-0.1,0.3-0.3,0.3h-1.2C459.4,146.5,459.3,146.4,459.3,146.2z"/>
	<path class="st2" d="M491.4,143.5v-3.9c0-1.9,1.3-3.3,3.2-3.3c1.9,0,3.2,1.4,3.2,3.3v3.9c0,1.9-1.3,3.3-3.2,3.3
		C492.7,146.7,491.4,145.4,491.4,143.5z M496.1,143.5v-4c0-0.9-0.6-1.6-1.5-1.6s-1.5,0.6-1.5,1.6v4c0,0.9,0.5,1.6,1.5,1.6
		S496.1,144.5,496.1,143.5z"/>
	<path class="st2" d="M527.8,136.5c0.2,0,0.3,0.1,0.3,0.3v6.7c0,0.9,0.5,1.6,1.4,1.6s1.4-0.6,1.4-1.6v-6.7c0-0.2,0.1-0.3,0.3-0.3
		h1.2c0.2,0,0.3,0.1,0.3,0.3v6.7c0,1.9-1.3,3.3-3.1,3.3s-3.1-1.4-3.1-3.3v-6.7c0-0.2,0.1-0.3,0.3-0.3H527.8z"/>
	<path class="st2" d="M567.7,139.5v3.9c0,1.9-1.3,3.3-2.9,3.3c-0.7,0-1.3-0.3-1.8-0.7v4.2c0,0.2-0.1,0.3-0.3,0.3h-1.2
		c-0.2,0-0.3-0.1-0.3-0.3v-10.7c0-1.9,1.3-3.3,3.2-3.3C566.4,136.3,567.7,137.6,567.7,139.5z M566,139.5c0-0.9-0.5-1.6-1.5-1.6
		s-1.5,0.6-1.5,1.6v4c0,0.9,0.6,1.6,1.5,1.6s1.5-0.6,1.5-1.6V139.5z"/>
</g>
<g id="svgg">
	<path id="path0" class="st3" d="M0.4,75v75h75h75V75V0h-75h-75V75 M76.5,8c4,0.5,6.8,1.7,9.9,4.6c1.9,1.7,3.2,3.8,4.3,6.5
		c0.3,0.7,0.5,1.5,0.6,1.9c0,0.3,0.2,1,0.3,1.4c0.3,1,0.3,4.1,0,5.3c-0.1,0.5-0.3,1.3-0.3,1.7c-0.1,0.5-0.2,1.1-0.4,1.4
		c-0.2,0.3-0.4,0.9-0.5,1.3c-0.7,2-3.6,5.8-5.2,6.8c-0.4,0.3-0.7,0.5-0.8,0.7c0,0.1-0.9,0.6-1.9,1.1c-2.6,1.2-2.8,1.3-4,1.5
		c-0.6,0.1-1.5,0.3-2,0.4c-1,0.2-3.5,0.3-4.1,0c-0.2-0.1-1-0.3-1.8-0.4c-0.7-0.1-1.8-0.4-2.4-0.7c-0.6-0.2-1.1-0.4-1.2-0.4
		c-0.6,0-3.5-2.1-5-3.7c-1.7-1.7-1.9-2.1-2.9-3.8c-0.3-0.5-0.6-1-0.6-1.1c-1.6-2.1-1.9-8.8-0.7-12.8c1.9-5.8,7.8-10.9,13.5-11.6
		c0.6-0.1,1.2-0.2,1.2-0.2C72.8,7.7,74.7,7.8,76.5,8 M72.5,16.2c-0.1,0.1-0.6,0.3-1.2,0.5c-2.7,0.9-5.2,3.5-5.7,6.1
		c-0.1,0.6-0.3,1.2-0.4,1.3c-0.7,1.4,0.6,5.7,2.4,7.5c8.6,8.7,21.6-3.8,13.2-12.7C79.2,16.9,74,15.3,72.5,16.2 M119.7,33.3
		c0.4,0.1,1.3,0.2,1.9,0.3c1.1,0.2,1.9,0.4,3.8,1.1c2.1,0.8,7.2,4.9,7.2,5.8c0,0.1,0.1,0.3,0.1,0.3c0.2,0.1,1.1,1.5,1.3,2.1
		c0.1,0.3,0.3,0.7,0.3,0.8c0.9,1.2,1.5,6.1,1.1,9.7c-0.2,2-1.9,6.3-2.7,6.7c-0.2,0.1-0.3,0.4-0.4,0.6c-0.3,1.5-5.6,5.4-8.5,6.3
		c-0.4,0.1-1,0.3-1.4,0.5c-1.3,0.5-7,0.4-9-0.2C106,65,101,58.4,101,50.6c0-2.5,0.7-5.7,1.6-7.5c0.1-0.1,0.3-0.6,0.6-1.1
		c0.9-1.7,2.7-3.8,4.7-5.4C110.7,34.3,116.3,32.7,119.7,33.3 M34.7,34.5c0.8,0.1,1.7,0.2,2,0.4c0.3,0.1,1.1,0.4,1.7,0.7
		c2.4,1,5.9,3.8,7.1,5.6c0.2,0.2,0.4,0.6,0.5,0.7c2,2.3,3.2,7.6,2.6,12.1c-1.4,11.4-14.6,18.4-24.8,13c-1.8-0.9-1.9-1-3-1.9
		c-7.3-5.6-8.9-16.5-3.5-23.8c1.7-2.3,4.8-4.9,6.5-5.4c0.2-0.1,0.6-0.2,0.8-0.4C26.5,34.6,30.5,34.1,34.7,34.5 M115.4,41.8
		c-8.5,3.1-8,15.1,0.6,17.5c6.1,1.7,12-3.3,11.5-9.6c-0.1-1.6-1-3.8-1.9-4.8c-0.3-0.3-0.6-0.7-0.7-0.9c-0.1-0.1-0.6-0.5-1.1-0.9
		c-0.5-0.3-0.9-0.7-0.9-0.8c0-0.1-0.7-0.3-1.5-0.6C119.4,41.2,117.2,41.2,115.4,41.8 M30.7,42.3c-4.2,0.5-7.7,3.8-8.3,7.7
		c-0.2,1.2-0.1,3.6,0.2,3.9c0.1,0.1,0.2,0.5,0.4,0.9c0.3,1,1.4,2.6,2.1,3.2c1.1,0.9,2.4,1.8,3.1,2c0.4,0.1,1,0.3,1.3,0.5
		c2.9,1.1,7.5-0.8,9.7-4.1C43.4,50.4,38,41.5,30.7,42.3 M83.8,53c6.9,1.8,5.5,11.8-1.6,11.6c-2.8-0.1-4.2-1-5.4-3.5
		c-1.1-2.2,0-6,1.9-7.1c0.2-0.1,0.6-0.4,0.8-0.5C80.5,52.9,82.4,52.7,83.8,53 M67.1,54c3.5,0.8,5.1,5.7,2.8,9
		c-3.1,4.6-10.5,2.6-10.9-2.9c-0.1-1.7,1-4.4,2.1-5.1c0.3-0.2,0.6-0.4,0.8-0.6C62.8,53.8,65.3,53.6,67.1,54 M93.7,68.1
		c1.4,0.6,2.1,1.2,3,2.6l0.7,1.1l0,1.7c0,5.7-6.3,8.3-10.2,4.2c-1.2-1.3-1.5-2-1.5-4.2l0-1.7l0.7-1.2c0.8-1.4,1.9-2.3,3.8-2.9
		C90.9,67.5,92.7,67.7,93.7,68.1 M59.5,68.9c4.9,2,4.6,9.4-0.3,11.1c-5.8,2-10.5-4.7-6.6-9.5C54.2,68.6,57.1,67.9,59.5,68.9
		 M123.5,81.5c2.8,0.7,5.1,1.9,7.2,3.6c1,0.8,1.2,1.1,2,2c1.6,1.9,3.4,5.7,3.7,7.8c0.5,3.4,0.5,3.6,0.2,5.4c-0.4,3-1.7,6.7-2.9,7.8
		c-0.2,0.2-0.7,0.8-1,1.3c-0.7,1-3,3-4.1,3.7c-1.8,1-3,1.5-4.5,2c-1.9,0.6-1.9,0.6-4.6,0.6c-3.4,0-4.9-0.3-7-1.3
		c-0.4-0.2-0.8-0.4-0.9-0.4c-0.2,0-2.7-1.6-3.1-2c-0.3-0.3-0.8-0.7-1.1-1.1c-0.4-0.3-1-1-1.4-1.5c-0.4-0.5-0.9-1.1-1.1-1.4
		c-1.7-2.1-3.2-7.4-2.9-10.4c0.3-3.5,0.6-4.5,1.8-6.9c1-2,1.7-3,3.3-4.6c1.9-1.9,4.1-3.2,6.4-4c1-0.3,1.8-0.5,4.6-1.1
		C119.1,80.9,122,81.1,123.5,81.5 M86,82.9c3.6,1.6,4.7,5.7,2.5,8.9c-3.4,4.9-11,2.3-10.8-3.6C77.8,84,82.2,81.2,86,82.9 M35.2,83.3
		c0.5,0.1,1.1,0.2,1.4,0.4s0.8,0.3,1.3,0.4c2.8,0.5,7.6,4,9.2,6.8c0.3,0.5,0.6,1,0.8,1.3c2.4,3.7,2.7,9.4,0.8,14.9
		c-0.2,0.6-0.5,1.2-0.6,1.3c-0.1,0.1-0.4,0.5-0.6,0.9c-0.9,1.6-3.4,4.4-4.3,4.9c-0.3,0.1-0.6,0.4-0.7,0.5c-0.4,0.5-4,2.2-5.6,2.6
		c-4.3,1-9.9,0.4-12.5-1.4c-0.2-0.1-0.7-0.4-1-0.7c-1.2-0.7-1.7-1.1-3.1-2.5c-1.2-1.1-3.1-3.6-3.1-4c0-0.1-0.1-0.3-0.3-0.5
		c-1.8-2.6-2.3-9.5-1-13.4c1.3-3.6,3.7-6.8,6.5-8.7c1-0.7,3.8-2.1,4.1-2.1c0.1,0,0.6-0.1,1.1-0.3C29.2,83.1,32.9,82.9,35.2,83.3
		 M68.7,83.7c4.9,2.2,4.6,9.4-0.5,11c-2.4,0.8-4.9,0.2-6.3-1.4C57.6,88.3,62.8,81.1,68.7,83.7 M117.1,89.5c-1.4,0.4-2.5,0.9-2.6,1.1
		c-0.1,0.1-0.4,0.4-0.8,0.6c-2.6,1.8-4,5.6-3.3,9c2.3,10.8,18.1,9,18.1-2C128.5,92.4,122.5,87.9,117.1,89.5 M31.2,91.2
		c-0.3,0.1-0.7,0.1-0.8,0.2c-0.1,0.1-0.5,0.2-0.9,0.2c-1.5,0.3-4.3,2.6-5.1,4.2c-0.1,0.2-0.3,0.4-0.3,0.5c-0.4,0.3-1.1,5.1-0.8,5.4
		c0.1,0.1,0.3,0.6,0.4,1c1.6,5.7,8.1,8.5,13.2,5.6c4.5-2.5,6.1-8.8,3.3-13C38.2,92.4,34.5,90.6,31.2,91.2 M79.9,107.9
		c1,0.2,2.2,0.5,2.8,0.8c0.6,0.2,1.1,0.4,1.2,0.4c0.5,0,3.3,2,4.8,3.4c2.5,2.3,4.4,5.8,4.9,8.8c0.4,3.1,0.4,6-0.1,7.8
		c-0.1,0.4-0.3,1.2-0.5,1.7c-1,3.5-4.3,7.3-8.3,9.6c-2,1.1-6.7,2.2-8.8,2c-3.5-0.3-5.7-0.9-7.6-2.1c-0.5-0.3-0.9-0.5-1-0.5
		c-0.4,0-2.9-2.2-4.3-3.8c-0.7-0.8-2.2-3.2-2.5-4c-0.1-0.4-0.4-1-0.5-1.3c-1.3-3-1.3-7.6-0.1-11c0.2-0.5,0.4-1.2,0.5-1.5
		c0.3-0.8,1.9-3.5,2.8-4.5c1.2-1.3,3.3-3.1,4.5-3.7c0.4-0.2,0.9-0.5,1.1-0.6C71.4,107.7,75.8,107.1,79.9,107.9 M74.9,115.7
		c-2.8,0.7-4.5,1.9-6.4,4.4c-0.7,0.8-1.1,2.8-1.1,4.9v2.1l0.7,1.4c1.1,2.3,3.9,4.9,5,4.9c0.1,0,0.7,0.1,1.4,0.3
		c1.8,0.5,4.1,0.2,5.8-0.7c0.9-0.4,2.6-1.6,2.6-1.8c0-0.1,0.3-0.4,0.6-0.7c0.7-0.7,1.5-2.4,2-4.2l0.4-1.4l-0.3-1.4
		c-0.7-3.7-3-6.4-6.3-7.6C78.3,115.8,75.6,115.6,74.9,115.7"/>
	<path id="path1" class="st4" d="M72.7,7.9c0,0-0.6,0.2-1.2,0.2c-5.7,0.7-11.6,5.8-13.5,11.6c-1.2,3.9-0.9,10.7,0.7,12.8
		c0.1,0.1,0.3,0.6,0.6,1.1c0.9,1.8,1.2,2.1,2.9,3.8c1.5,1.5,4.4,3.7,5,3.7c0.1,0,0.6,0.2,1.2,0.4c0.6,0.2,1.6,0.5,2.4,0.7
		c0.7,0.1,1.5,0.3,1.8,0.4c0.6,0.2,3.1,0.2,4.1,0c0.5-0.1,1.4-0.3,2-0.4c1.3-0.2,1.5-0.3,4-1.5c1-0.5,1.9-1,1.9-1.1
		c0-0.1,0.4-0.4,0.8-0.7c1.6-1,4.5-4.9,5.2-6.8c0.1-0.4,0.4-0.9,0.5-1.3c0.2-0.3,0.3-1,0.4-1.4c0.1-0.5,0.2-1.2,0.3-1.7
		c0.3-1.2,0.3-4.3,0-5.3c-0.1-0.4-0.3-1-0.3-1.4c-0.1-0.7-0.9-2.7-1.5-3.8c-0.8-1.5-1.1-1.9-1.9-2.9c-2.4-2.9-5.9-5.2-9.3-6
		C77.4,8,72.9,7.7,72.7,7.9 M76.7,16.4c1.6,0.4,3.3,1.3,4.3,2.4c8.4,8.9-4.6,21.4-13.2,12.7c-1.8-1.8-3.2-6.1-2.4-7.5
		c0.1-0.1,0.2-0.7,0.4-1.3c0.5-2.5,3-5.2,5.7-6.1c0.5-0.2,1-0.4,1.2-0.5C73,15.9,75.2,16,76.7,16.4 M116.5,33.3
		c-2.7,0.3-4.3,0.8-6.9,2.2c-2.5,1.3-5.1,4.1-6.4,6.5c-0.2,0.5-0.5,0.9-0.6,1.1c-0.9,1.8-1.7,5-1.6,7.5c0,7.8,5,14.4,12.6,16.7
		c2,0.6,7.7,0.7,9,0.2c0.4-0.1,1-0.3,1.4-0.5c2.9-0.8,8.1-4.7,8.5-6.3c0.1-0.2,0.2-0.5,0.4-0.6c0.8-0.5,2.4-4.7,2.7-6.7
		c0.4-3.6-0.1-8.5-1.1-9.7c-0.1-0.1-0.2-0.4-0.3-0.8c-0.2-0.6-1.1-2-1.3-2.1c-0.1,0-0.1-0.2-0.1-0.3c0-0.9-5.1-5-7.2-5.8
		c-1.9-0.7-2.7-1-3.8-1.1c-0.7-0.1-1.5-0.2-1.9-0.3C118.8,33.1,118.2,33.2,116.5,33.3 M29.9,34.4c-1.6,0.1-4.5,0.8-5.3,1.3
		c-0.2,0.1-0.6,0.3-0.8,0.4c-2.9,0.9-7,5.2-8.5,9.1c-3,7.6,0.2,17.4,7,21.2c10.2,5.6,21.2,1.8,25.5-8.8c1.8-4.6,0.9-12.4-1.8-15.6
		c-0.1-0.2-0.4-0.5-0.5-0.7c-1.1-1.8-4.6-4.6-7.1-5.6c-0.7-0.3-1.4-0.6-1.7-0.7C35.8,34.5,32.2,34.2,29.9,34.4 M121.5,41.9
		c0.8,0.3,1.5,0.5,1.5,0.6c0,0.1,0.4,0.4,0.9,0.8c0.5,0.3,1,0.7,1.1,0.9c0.1,0.1,0.4,0.5,0.7,0.9c2.7,2.9,2.4,8.8-0.6,11.8
		c-5.2,5.4-14.1,2.9-15.6-4.3C108.1,45.4,114.5,39.6,121.5,41.9 M34.1,42.7c7.4,2.2,8.9,11.9,2.5,16.4c-1.8,1.3-5.5,2-7.1,1.4
		c-0.4-0.1-1-0.3-1.3-0.5c-0.7-0.2-2-1.1-3.1-2c-0.7-0.6-1.8-2.3-2.1-3.2c-0.1-0.4-0.3-0.8-0.4-0.9c-0.2-0.3-0.3-2.7-0.2-3.9
		C23.1,44.7,28.7,41.2,34.1,42.7 M80.9,53c-0.5,0.1-1,0.3-1.3,0.5c-0.2,0.2-0.6,0.4-0.8,0.5c-1.3,0.7-2.2,2.7-2.3,4.8
		C76.2,64,83,66.8,86.7,63C90.9,58.6,86.9,51.7,80.9,53 M63,53.9c-0.4,0.1-0.9,0.3-1,0.4c-0.2,0.1-0.6,0.4-0.8,0.6
		C60,55.6,59,58.3,59.1,60c0.3,3.6,3.5,6,7.1,5.3c5.3-0.9,6.6-7.7,2.2-10.8C67.3,53.8,64.5,53.5,63,53.9 M90.1,67.7
		c-1.8,0.6-3,1.5-3.8,2.9l-0.7,1.2l0,1.7c0,2.2,0.2,2.9,1.5,4.2c3.9,4.1,10.2,1.5,10.2-4.2l0-1.7l-0.7-1.1
		C95.2,68.4,92.2,67,90.1,67.7 M55.5,68.6c-4.2,1.2-5.8,6.7-2.7,9.7c2.6,2.5,5.8,2.7,8.4,0.4C65.8,74.6,61.5,66.9,55.5,68.6
		 M118.1,81.1c-4.8,0.9-5.4,1.1-8.1,2.7c-3.9,2.3-7.1,7-7.7,11.3c-0.4,2.8-0.4,3.4-0.2,5.5c0.3,2.7,1.5,6,2.7,7.4
		c0.2,0.2,0.7,0.9,1.1,1.4c0.4,0.5,1,1.2,1.4,1.5c0.4,0.3,0.9,0.8,1.1,1.1c0.4,0.4,2.9,2,3.1,2c0.1,0,0.5,0.2,0.9,0.4
		c2.1,1,3.6,1.3,7,1.3c2.7,0,2.7,0,4.6-0.6c1.5-0.4,2.7-1,4.5-2c1.1-0.6,3.4-2.7,4.1-3.7c0.4-0.5,0.8-1.1,1-1.3
		c1.1-1.2,2.5-4.8,2.9-7.8c0.2-1.8,0.2-2-0.2-5.4c-0.3-2.1-2.1-6-3.7-7.8c-0.8-0.9-1.1-1.2-2-2C127.4,82.3,121.5,80.4,118.1,81.1
		 M81.4,82.8c-7,3-3.2,13.5,4,11.2c5.3-1.6,5.6-8.8,0.6-11.1C84.8,82.4,82.5,82.4,81.4,82.8 M29.1,83.3c-0.4,0.1-1.1,0.3-1.5,0.4
		c-0.5,0.2-1,0.3-1.1,0.3c-0.3,0-3,1.4-4.1,2.1c-2.8,1.9-5.2,5.1-6.5,8.7c-1.4,3.8-0.9,10.8,1,13.4c0.2,0.2,0.3,0.5,0.3,0.5
		c0,0.4,1.9,2.8,3.1,4c1.4,1.4,1.9,1.8,3.1,2.5c0.4,0.2,0.8,0.5,1,0.7c2.6,1.7,8.2,2.4,12.5,1.4c1.6-0.4,5.2-2,5.6-2.6
		c0.1-0.1,0.4-0.4,0.7-0.5c0.9-0.5,3.4-3.3,4.3-4.9c0.2-0.4,0.5-0.8,0.6-0.9c0.2-0.3,0.8-1.9,1.4-3.9c0.6-2.1,0.6-6.3,0-8.3
		c-0.5-1.7-1.2-3.5-1.6-4.1c-0.2-0.3-0.5-0.9-0.8-1.3c-1.6-2.7-6.4-6.3-9.2-6.8c-0.5-0.1-1.1-0.3-1.3-0.4
		C35.6,83.1,30.8,82.9,29.1,83.3 M64.9,83.2c-4.9,1-6.2,8.1-2,10.8c3.2,2.1,7.7,0.6,9-2.9C73.5,86.7,69.6,82.3,64.9,83.2
		 M121.4,89.4c9.8,2.2,9.2,16.5-0.8,17.9c-9.2,1.3-14.4-10.9-6.9-16.1c0.3-0.2,0.7-0.5,0.8-0.6c0.1-0.2,1.2-0.6,2.6-1.1
		C117.9,89.2,120.5,89.2,121.4,89.4 M34.5,91.4c6.1,1.4,9,8.6,5.6,13.8c-4.4,6.7-14.3,5.2-16.5-2.5c-0.1-0.5-0.3-0.9-0.4-1
		c-0.3-0.4,0.4-5.1,0.8-5.4c0.1,0,0.2-0.3,0.3-0.5c0.8-1.6,3.6-3.9,5.1-4.2c0.4-0.1,0.8-0.2,0.9-0.2C31.1,91,32.8,91,34.5,91.4
		 M73.4,107.8c-1.8,0.3-3.8,1-4.7,1.5c-0.2,0.1-0.7,0.4-1.1,0.6c-1.1,0.6-3.3,2.4-4.5,3.7c-0.8,0.9-2.5,3.7-2.8,4.5
		c-0.1,0.3-0.3,1-0.5,1.5c-1.2,3.5-1.2,8,0.1,11c0.1,0.3,0.4,0.9,0.5,1.3c0.3,0.8,1.7,3.1,2.5,4c1.3,1.6,3.8,3.8,4.3,3.8
		c0.1,0,0.5,0.2,1,0.5c1.9,1.2,4.1,1.8,7.6,2.1c2.1,0.2,6.8-0.9,8.8-2c4-2.3,7.3-6.1,8.3-9.6c0.2-0.6,0.4-1.4,0.5-1.7
		c0.5-1.7,0.5-4.7,0.1-7.8c-0.4-2.9-2.4-6.4-4.9-8.8c-1.4-1.3-4.3-3.4-4.8-3.4c-0.1,0-0.6-0.2-1.2-0.4
		C80.3,107.6,76.4,107.2,73.4,107.8 M79.2,116.1c3.4,1.2,5.6,3.9,6.3,7.6l0.3,1.4l-0.4,1.4c-0.5,1.8-1.3,3.5-2,4.2
		c-0.3,0.3-0.6,0.6-0.6,0.7c0,0.1-1.8,1.3-2.6,1.8c-1.8,0.9-4.1,1.1-5.8,0.7c-0.6-0.2-1.3-0.3-1.4-0.3c-1.1,0-3.9-2.7-5-4.9
		l-0.7-1.4V125c0-2.1,0.4-4.1,1.1-4.9c1.9-2.5,3.7-3.7,6.4-4.4C75.6,115.6,78.3,115.8,79.2,116.1"/>
</g>
</svg>
