<?xml version="1.0" encoding="utf-8"?>
<!-- Generator: Adobe Illustrator 23.0.0, SVG Export Plug-In . SVG Version: 6.00 Build 0)  -->
<svg version="1.1" id="Слой_1" xmlns="http://www.w3.org/2000/svg" xmlns:xlink="http://www.w3.org/1999/xlink" x="0px" y="0px"
	 viewBox="0 0 301 192" style="enable-background:new 0 0 301 192;" xml:space="preserve">
<style type="text/css">
	.st0{fill-rule:evenodd;clip-rule:evenodd;fill:#E4EEF8;}
	.st1{fill-rule:evenodd;clip-rule:evenodd;fill:#0084D4;}
	.st2{fill-rule:evenodd;clip-rule:evenodd;fill:#FFFFFF;}
	.st3{fill-rule:evenodd;clip-rule:evenodd;fill:#699FD2;}
</style>
<g>
	<path class="st0" d="M289.3,102.6H235h-26.4c-3.6,0-6.6-3-6.6-6.6s3-6.6,6.6-6.6H235h32.7c6.4,0,11.6-5.2,11.6-11.6
		s-5.2-11.6-11.6-11.6H230h-39.7c-3.6,0-6.6-3-6.6-6.6s3-6.6,6.6-6.6H230h5.1c5.9,0,10.8-4.9,10.8-10.8v-1.5c0-6-4.9-10.8-10.8-10.8
		H51.7c-5.9,0-10.8,4.9-10.8,10.8v1.5c0,6,4.9,10.8,10.8,10.8h46.1c3.6,0,6.6,3,6.6,6.6s-3,6.6-6.6,6.6h-22
		c-6.4,0-11.6,5.2-11.6,11.6s5.2,11.6,11.6,11.6h15.4c3.6,0,6.6,3,6.6,6.6s-3,6.6-6.6,6.6H36.7h-25c-6.4,0-11.6,5.2-11.6,11.6
		s5.2,11.6,11.6,11.6h49.8H64c-0.4,0-0.9,0-1.3,0.1c3,0.6,5.3,3.3,5.3,6.5s-2.3,5.9-5.3,6.5c0.4,0.1,0.8,0.1,1.3,0.1h-2.5H50.6
		c-6.3,0-11.5,5.2-11.5,11.5v0.2c0,6.3,5.2,11.5,11.5,11.5h219.6c6.3,0,11.5-5.2,11.5-11.5v-0.2c0-6.3-5.2-11.5-11.5-11.5h-12.1
		c-3.6,0-6.6-3-6.6-6.6s3-6.6,6.6-6.6h23.1h8.1c6.4,0,11.6-5.2,11.6-11.6S295.7,102.6,289.3,102.6"/>
	<path class="st1" d="M75.8,17.8c-0.8,0-1.5-0.6-1.6-1.4c-0.1-0.9,0.5-1.8,1.4-1.9c2.7-0.4,5.5-0.6,8.3-0.6c0.9,0,1.7,0.7,1.7,1.7
		c0,0.9-0.7,1.7-1.6,1.7h-0.2c-2.6,0-5.2,0.2-7.8,0.6C76,17.8,75.9,17.8,75.8,17.8 M100.1,19.8c-0.2,0-0.3,0-0.5-0.1
		c-2.5-0.8-5.1-1.4-7.7-1.9c-0.9-0.1-1.5-1-1.4-1.9s1-1.5,1.9-1.4c2.8,0.4,5.5,1.1,8.2,2c0.9,0.3,1.3,1.2,1.1,2.1
		C101.5,19.3,100.8,19.8,100.1,19.8 M60.3,22.8c-0.6,0-1.2-0.3-1.5-0.9c-0.4-0.8-0.1-1.8,0.7-2.2c2.5-1.3,5.1-2.4,7.8-3.2
		c0.9-0.3,1.8,0.2,2.1,1.1c0.3,0.9-0.2,1.8-1.1,2.1c-2.5,0.8-5,1.8-7.3,3C60.8,22.7,60.5,22.8,60.3,22.8 M114.6,27.2
		c-0.3,0-0.7-0.1-1-0.3c-2.1-1.6-4.4-3-6.7-4.2c-0.8-0.4-1.1-1.4-0.7-2.2c0.4-0.8,1.4-1.1,2.2-0.7c2.5,1.3,4.9,2.8,7.2,4.4
		c0.7,0.5,0.9,1.6,0.4,2.3C115.6,27,115.1,27.2,114.6,27.2 M47,32.4c-0.4,0-0.9-0.2-1.2-0.5c-0.6-0.7-0.6-1.7,0-2.3
		c2-2,4.2-3.8,6.4-5.5c0.7-0.5,1.8-0.4,2.3,0.4c0.5,0.7,0.4,1.8-0.4,2.3c-2.1,1.5-4.2,3.3-6,5.1C47.9,32.2,47.5,32.4,47,32.4
		 M126.1,38.8c-0.5,0-1-0.2-1.3-0.7c-1.5-2.1-3.3-4.2-5.1-6c-0.6-0.7-0.6-1.7,0-2.3c0.7-0.6,1.7-0.6,2.3,0c2,2,3.8,4.2,5.5,6.4
		c0.5,0.7,0.4,1.8-0.4,2.3C126.8,38.7,126.5,38.8,126.1,38.8 M37.4,45.5c-0.3,0-0.5-0.1-0.8-0.2c-0.8-0.4-1.1-1.4-0.7-2.2
		c1.3-2.5,2.8-4.9,4.4-7.2c0.5-0.7,1.6-0.9,2.3-0.4s0.9,1.6,0.4,2.3c-1.6,2.1-3,4.4-4.2,6.7C38.6,45.2,38,45.5,37.4,45.5
		 M133.5,53.4c-0.7,0-1.4-0.4-1.6-1.2c-0.8-2.5-1.8-5-3-7.3c-0.4-0.8-0.1-1.8,0.7-2.2s1.8-0.1,2.2,0.7c1.3,2.5,2.4,5.1,3.2,7.8
		c0.3,0.9-0.2,1.8-1.1,2.1C133.9,53.3,133.7,53.4,133.5,53.4 M32.3,61c-0.1,0-0.2,0-0.3,0c-0.9-0.1-1.5-1-1.4-1.9
		c0.4-2.8,1.1-5.5,2-8.2c0.3-0.9,1.2-1.4,2.1-1.1c0.9,0.3,1.3,1.2,1.1,2.1c-0.8,2.5-1.5,5.1-1.9,7.7C33.8,60.4,33.1,61,32.3,61
		 M32.3,77.6c-0.8,0-1.5-0.6-1.6-1.4c-0.4-2.8-0.7-5.6-0.7-8.4v-0.2c0-0.9,0.7-1.7,1.7-1.7c0.9,0,1.7,0.7,1.7,1.7v0.3
		c0,2.6,0.2,5.3,0.6,7.9c0.1,0.9-0.5,1.8-1.4,1.9C32.4,77.5,32.3,77.6,32.3,77.6 M37.3,93.1c-0.6,0-1.2-0.3-1.5-0.9
		c-1.3-2.5-2.4-5.1-3.2-7.8c-0.3-0.9,0.2-1.8,1.1-2.1s1.8,0.2,2.1,1.1c0.8,2.5,1.8,5,3,7.3c0.4,0.8,0.1,1.8-0.7,2.2
		C37.8,93,37.6,93.1,37.3,93.1 M46.9,106.3c-0.4,0-0.9-0.2-1.2-0.5c-2-2-3.8-4.1-5.5-6.4c-0.5-0.7-0.4-1.8,0.4-2.3
		c0.7-0.5,1.8-0.4,2.3,0.4c1.6,2.1,3.3,4.2,5.2,6c0.6,0.6,0.6,1.7,0,2.3C47.8,106.1,47.3,106.3,46.9,106.3 M60.1,115.9
		c-0.3,0-0.5-0.1-0.8-0.2c-2.5-1.3-4.9-2.8-7.2-4.4c-0.7-0.5-0.9-1.6-0.4-2.3c0.5-0.7,1.6-0.9,2.3-0.4c2.1,1.6,4.4,3,6.7,4.2
		c0.8,0.4,1.1,1.4,0.7,2.2C61.3,115.6,60.7,115.9,60.1,115.9 M75.6,121c-0.1,0-0.2,0-0.3,0c-2.8-0.4-5.5-1.1-8.2-2
		c-0.9-0.3-1.3-1.2-1.1-2.1c0.3-0.9,1.2-1.3,2.1-1.1c2.5,0.8,5.1,1.4,7.7,1.9c0.9,0.1,1.5,1,1.4,1.9C77.1,120.4,76.4,121,75.6,121"
		/>
	<path class="st2" d="M22.5,32c0,14.1,11.5,25.6,25.6,25.6S73.7,46.1,73.7,32S62.2,6.4,48.1,6.4S22.5,17.9,22.5,32"/>
	<path class="st1" d="M48.1,9.2c-13.2,0-23.9,10.7-23.9,23.9S34.9,57,48.1,57C61.3,56.9,72,46.2,72,33.1S61.3,9.2,48.1,9.2
		 M48.1,60.8c-15.3,0-27.7-12.4-27.7-27.7S32.8,5.3,48.1,5.3S75.8,17.7,75.8,33S63.4,60.8,48.1,60.8"/>
	<path class="st1" d="M162.8,191.5c-43.4,2-79.2-33.8-77.2-77.2C87.3,76.4,118,45.8,155.9,44c43.4-2,79.2,33.8,77.2,77.2
		C231.3,159.1,200.7,189.8,162.8,191.5z M157.3,48.5c-39.4,1-70,35.5-67.5,74c2.3,36.4,33.6,65.8,70.8,65c37.6-0.8,68-32.2,68-69.5
		C228.5,79.5,196.1,47.5,157.3,48.5z"/>
	<g id="svgg">
		<path id="path0" class="st3" d="M154.9,62.2c-48.6,4.5-70.1,62.4-35.9,96.6c35.6,35.6,96.6,10.3,96.6-40
			C215.6,86.1,186.8,59.3,154.9,62.2 M166,72.2c38.3,6.1,53.5,52.6,26.3,79.8c-25.7,25.7-69.8,13.7-78.8-21.6
			C105.1,98.1,133.2,67,166,72.2 M156.3,82.2c-1.1,1.1-1.1,1.1-1.1,22.7s0,21.5,1.5,22.6c0.8,0.5,2.4,0.6,3.2,0.2
			c1.5-0.8,27.5-18.9,28.1-19.6c1.7-1.8,0.3-5.1-2.2-5.1c-1.4,0-1-0.3-13.5,8.4c-5.7,4-10.5,7.2-10.6,7.2s-0.2-7.7-0.2-17.2
			c0-10-0.1-17.5-0.3-17.9C160.6,81.4,157.8,80.7,156.3,82.2"/>
	</g>
	<path class="st1" d="M246.6,7.5c-15.3,0-27.8,12.5-27.8,27.8S231.2,63,246.6,63s27.8-12.5,27.8-27.8S261.9,7.5,246.6,7.5
		 M246.6,66.2c-17.1,0-30.9-13.9-30.9-30.9s13.9-30.9,30.9-30.9s30.9,13.9,30.9,30.9S263.6,66.2,246.6,66.2"/>
	<path class="st1" d="M252.8,12c-0.1,0-0.1,0-0.2,0c-2-0.5-4-0.8-6.1-0.8c-0.4,0-0.8-0.4-0.8-0.8c0-0.4,0.3-0.8,0.8-0.8h0.1
		c2.2,0,4.4,0.3,6.5,0.8c0.4,0.1,0.7,0.5,0.6,1C253.5,11.7,253.1,12,252.8,12 M234.1,14.5c-0.3,0-0.5-0.1-0.7-0.4
		c-0.2-0.4-0.1-0.9,0.3-1.1c1.9-1.1,4-2,6.1-2.6c0.4-0.1,0.9,0.1,1,0.6c0.1,0.4-0.1,0.9-0.6,1c-2,0.5-3.9,1.3-5.7,2.4
		C234.4,14.4,234.3,14.5,234.1,14.5 M263.8,18.3c-0.2,0-0.4-0.1-0.6-0.2c-1.5-1.5-3.1-2.7-4.9-3.8c-0.4-0.2-0.5-0.7-0.3-1.1
		c0.2-0.4,0.7-0.5,1.1-0.3c1.9,1.1,3.7,2.5,5.3,4c0.3,0.3,0.3,0.8,0,1.1C264.2,18.2,264,18.3,263.8,18.3 M225.2,23.5
		c-0.1,0-0.3,0-0.4-0.1c-0.4-0.2-0.5-0.7-0.3-1.1c1.1-1.9,2.5-3.7,4-5.3c0.3-0.3,0.8-0.3,1.1,0s0.3,0.8,0,1.1
		c-1.5,1.5-2.7,3.1-3.8,4.9C225.7,23.3,225.4,23.5,225.2,23.5 M270.2,29.3c-0.4,0-0.7-0.2-0.8-0.6c-0.5-2-1.4-3.9-2.4-5.7
		c-0.2-0.4-0.1-0.9,0.3-1.1s0.9-0.1,1.1,0.3c1.1,1.9,2,4,2.6,6.1c0.1,0.4-0.1,0.9-0.6,1C270.4,29.3,270.3,29.3,270.2,29.3
		 M221.9,35.8c-0.4,0-0.8-0.3-0.8-0.8v-0.1c0-2.2,0.3-4.4,0.8-6.5c0.1-0.4,0.5-0.7,1-0.6c0.4,0.1,0.7,0.5,0.6,1
		c-0.5,2-0.8,4-0.8,6.1C222.7,35.4,222.3,35.8,221.9,35.8 M270.3,42.1c-0.1,0-0.1,0-0.2,0c-0.4-0.1-0.7-0.5-0.6-1
		c0.5-2,0.8-4.1,0.8-6.2c0-0.4,0.4-0.8,0.8-0.8s0.8,0.3,0.8,0.7v0.1c0,2.2-0.3,4.4-0.9,6.6C270.9,41.9,270.6,42.1,270.3,42.1
		 M225.2,48.1c-0.3,0-0.5-0.1-0.7-0.4c-1.1-1.9-2-4-2.5-6.1c-0.1-0.4,0.1-0.9,0.6-1c0.4-0.1,0.9,0.1,1,0.6c0.5,2,1.3,3.9,2.4,5.7
		c0.2,0.4,0.1,0.9-0.3,1.1C225.5,48,225.4,48.1,225.2,48.1 M263.9,53.1c-0.2,0-0.4-0.1-0.6-0.2c-0.3-0.3-0.3-0.8,0-1.1
		c1.5-1.5,2.7-3.1,3.8-4.9c0.2-0.4,0.7-0.5,1.1-0.3s0.5,0.7,0.3,1.1c-1.1,1.9-2.5,3.7-4,5.3C264.3,53,264.1,53.1,263.9,53.1
		 M234.2,57.1c-0.1,0-0.3,0-0.4-0.1c-1.9-1.1-3.7-2.5-5.3-4c-0.3-0.3-0.3-0.8,0-1.1s0.8-0.3,1.1,0c1.5,1.5,3.1,2.7,4.9,3.8
		c0.4,0.2,0.5,0.7,0.3,1.1C234.8,56.9,234.5,57.1,234.2,57.1 M252.9,59.5c-0.4,0-0.7-0.2-0.8-0.6c-0.1-0.4,0.1-0.9,0.6-1
		c2-0.5,3.9-1.3,5.7-2.4c0.4-0.2,0.9-0.1,1.1,0.3c0.2,0.4,0.1,0.9-0.3,1.1c-1.9,1.1-4,2-6.1,2.5C253,59.5,253,59.5,252.9,59.5
		 M246.5,60.3L246.5,60.3c-2.2,0-4.4-0.3-6.6-0.9c-0.4-0.1-0.7-0.5-0.6-1c0.1-0.4,0.5-0.7,1-0.6c2,0.5,4.1,0.8,6.1,0.8
		c0.4,0,0.8,0.4,0.8,0.8C247.3,60,247,60.3,246.5,60.3"/>
	<path class="st3" d="M236.6,36.1c0.6,5.6,5.7,9.6,11.2,8.9c5.6-0.6,9.6-5.7,8.9-11.2c-0.6-5.6-5.7-9.6-11.2-8.9
		C239.9,25.5,235.9,30.5,236.6,36.1"/>
</g>
<g id="svgg_1_">
	<path id="path0_1_" class="st3" d="M37,18.6c-0.2,0.2-0.2,0.5-0.2,1.6c0,1.5,0.1,1.8,0.8,1.8H38v2.9c0,4.4-0.1,4.1,4.2,6.7l2.9,1.7
		l0,0.7l0,0.7l-2.7,1.6C38.2,39,38,39.2,38,43.2v2.4h-0.4c-0.7,0-0.8,0.3-0.8,1.8c0,2-1.3,1.8,10.8,1.8s10.8,0.2,10.8-1.8
		c0-1.5-0.1-1.8-0.8-1.8h-0.4l0-2.6c0-4,0.1-3.8-4.1-6.4l-2.9-1.8l0-0.7l0-0.7l2.3-1.4c3.2-1.9,3.8-2.4,4.3-3.3l0.4-0.8l0-3l0-3h0.4
		c0.7,0,0.8-0.3,0.8-1.8c0-1.1,0-1.4-0.2-1.6C57.9,18.3,37.3,18.3,37,18.6 M55.4,24.3c0,3.8,0.1,3.6-3.9,6c-3.6,2.2-3.3,1.8-3.3,3.8
		c0,1.9-0.4,1.5,3.7,4c3.7,2.2,3.4,1.8,3.4,4.9l0,2.5h-7.8h-7.8l0-2.4c0.1-3.3-0.3-2.9,4.3-5.6c3.1-1.9,2.8-1.5,2.8-3.5
		c0-2,0.3-1.6-3.6-4c-3.9-2.4-3.5-1.8-3.6-5.3l0-2.9h7.8h7.8V24.3 M46.6,38.1c-1,0.4-2.5,1.3-4.4,2.6l-1.6,1.2v1.5v1.5l6.9,0l6.9,0
		l0-1.4l0-1.4L54,41.5C51.1,39,48.1,37.6,46.6,38.1"/>
</g>
</svg>
