<?xml version="1.0" encoding="utf-8"?>
<!-- Generator: Adobe Illustrator 23.0.0, SVG Export Plug-In . SVG Version: 6.00 Build 0)  -->
<svg version="1.1" id="Слой_1" xmlns="http://www.w3.org/2000/svg" xmlns:xlink="http://www.w3.org/1999/xlink" x="0px" y="0px"
	 viewBox="0 0 1320 438" style="enable-background:new 0 0 1320 438;" xml:space="preserve">
<style type="text/css">
	.st0{fill:#FFFFFF;}
</style>
<g>
	<path class="st0" d="M144.9,48.1c-13.4,0-25.9,2.1-37.5,6.3C95.7,58.7,85.6,65,77.1,73.4c-8.6,8.4-15.3,18.8-20.3,31.3
		c-4.9,12.5-7.4,27-7.4,43.5c0,16.4,2.3,30.7,6.9,42.8c4.6,12.1,11.1,22.1,19.5,30c8.4,7.9,18.6,13.8,30.5,17.6
		c11.9,3.8,25.1,5.7,39.7,5.7c4,0,8.2-0.2,12.7-0.6c4.5-0.4,9-1,13.5-1.8c4.5-0.8,8.9-1.7,13.2-2.7c4.3-1,8.1-2.1,11.5-3.3v25.7
		c-7,2.7-15.2,4.9-24.5,6.3c-9.3,1.5-18.8,2.2-28.6,2.2c-19.9,0-37.5-2.8-52.9-8.3s-28.3-13.5-38.7-23.9c-10.4-10.4-18.3-23-23.7-38
		c-5.4-15-8-31.9-8-50.8c0-18.6,2.8-35.7,8.5-51.3c5.7-15.6,13.8-29,24.5-40.2C64.1,46.5,77,37.8,92.2,31.6
		c15.2-6.3,32.3-9.4,51.2-9.4c5,0,9.9,0.2,14.8,0.6c4.9,0.4,9.6,1,14,1.8c4.5,0.8,8.6,1.7,12.4,2.8c3.8,1.1,7.1,2.2,9.8,3.4v25.7
		c-7.2-2.4-15.1-4.4-23.7-6C162.2,48.9,153.6,48.1,144.9,48.1z"/>
	<path class="st0" d="M274.2,166.8v99h-29.1V26.6H307c10.5,0,19.4,0.4,26.7,1.2c7.3,0.8,14,2,20.1,3.7c16.7,4.5,29.4,12.2,38.2,23.1
		c8.8,10.9,13.2,24.5,13.2,40.8c0,9.7-1.5,18.3-4.6,25.9c-3.1,7.6-7.4,14.2-13,19.8c-5.6,5.6-12.3,10.2-20.1,13.8
		c-7.8,3.6-16.5,6.2-26,7.9v0.7l70.8,102.2H383l-73.6-99H274.2z M274.2,52.9v87.6H303c8.9,0,16.6-0.3,22.9-0.9
		c6.3-0.6,12-1.7,17-3.2c10.1-3.1,17.9-8,23.4-14.8c5.5-6.8,8.2-15.7,8.2-26.6c-0.1-10.2-2.7-18.5-7.9-24.8
		c-5.1-6.3-12.2-10.8-21.3-13.5c-4.3-1.3-9.4-2.3-15.4-2.9c-6-0.6-13.5-0.9-22.7-0.9H274.2z"/>
	<path class="st0" d="M554.6,169.6v96.1h-29.1v-96.1l-87-143h31.8l69.3,116.2h0.9l69.3-116.2h31.8L554.6,169.6z"/>
	<path class="st0" d="M708.3,265.8h-29.1V26.6h66.2c9.9,0,19,0.6,27.4,1.8c8.4,1.2,16.1,3,23.1,5.5c14.3,5.1,25.1,12.8,32.5,23
		c7.4,10.2,11.1,22.7,11.1,37.6c0,12.2-2.4,22.8-7.2,32.1c-4.8,9.2-11.8,16.9-21,23.1c-9.2,6.2-20.3,10.9-33.5,14
		c-13.1,3.2-28,4.7-44.7,4.7c-8,0-16.2-0.4-24.8-1.1V265.8z M708.3,140.8c3.9,0.5,8,0.8,12.3,1.1c4.3,0.2,8.3,0.4,12.2,0.4
		c13.7,0,25.4-1.1,35-3.2s17.5-5.3,23.6-9.4s10.5-9.1,13.2-15c2.7-5.9,4.1-12.6,4.1-20.1c0-9.3-2.2-16.9-6.7-22.9
		c-4.5-6-10.8-10.5-19-13.6c-5.1-1.9-11-3.2-17.7-4c-6.7-0.8-14.4-1.2-23.2-1.2h-33.8V140.8z"/>
	<path class="st0" d="M973.7,265.8h-29.1V52.9h-79.9V26.6h188.9v26.3h-79.9V265.8z"/>
	<path class="st0" d="M1295.9,146.4c0,18.1-2.6,34.7-7.8,49.9c-5.2,15.1-12.6,28.2-22.3,39.1c-9.7,11-21.4,19.5-35,25.6
		c-13.7,6.1-28.9,9.2-45.8,9.2c-17.5,0-33.2-3.1-47-9.2c-13.8-6.1-25.5-14.7-35.1-25.6c-9.6-11-16.9-24-22-39.1
		c-5.1-15.1-7.6-31.7-7.6-49.9c0-18.2,2.6-34.9,7.9-50.1s12.7-28.3,22.3-39.2c9.6-11,21.3-19.5,35-25.6c13.7-6.1,29.1-9.2,46.1-9.2
		c17.4,0,32.9,3.1,46.7,9.2c13.8,6.1,25.4,14.7,35,25.6c9.6,11,16.9,24,22,39.2S1295.9,128.1,1295.9,146.4z M1267,146.4
		c0-16.1-2.1-30.3-6.3-42.5c-4.2-12.3-10-22.5-17.4-30.7c-7.4-8.2-16.1-14.4-26.2-18.7c-10.1-4.2-20.9-6.3-32.4-6.3
		c-11.6,0-22.4,2.1-32.4,6.3c-10.1,4.2-18.8,10.5-26.2,18.7c-7.4,8.2-13.2,18.5-17.4,30.7c-4.2,12.3-6.3,26.4-6.3,42.5
		s2.1,30.2,6.4,42.4c4.3,12.2,10.1,22.4,17.5,30.6c7.4,8.2,16.1,14.4,26.2,18.6c10.1,4.2,20.9,6.3,32.6,6.3
		c11.6,0,22.3-2.1,32.3-6.3c9.9-4.2,18.6-10.4,26-18.6c7.4-8.2,13.2-18.4,17.4-30.6C1264.8,176.6,1267,162.5,1267,146.4z"/>
</g>
<g>
	<path class="st0" d="M142.6,329.7h-31V412h-6.5v-82.3H74.4v-6.5h68.2V329.7z"/>
	<path class="st0" d="M412.4,412h-7.1l-8.8-23.6c-0.9-2.3-1.8-4.4-2.9-6.4c-1.1-2-2.3-3.7-3.7-5.2c-1.4-1.5-3-2.7-4.8-3.5
		c-1.8-0.9-3.9-1.3-6.4-1.3h-31v40h-6.5v-88.8h40c3.7,0,7.3,0.3,10.8,1c3.5,0.7,6.6,1.9,9.3,3.6c2.7,1.7,4.9,4.1,6.5,7.2
		c1.6,3.1,2.4,7,2.4,11.7c0,3-0.4,5.7-1.1,8.3c-0.7,2.6-1.8,4.9-3.3,6.9s-3.4,3.8-5.7,5.2c-2.3,1.4-5,2.5-8.1,3.1
		c1.7,1.3,3.1,2.5,4.1,3.7c1.1,1.2,2,2.5,2.8,3.8c0.8,1.4,1.5,2.8,2.1,4.5s1.3,3.5,2.1,5.6L412.4,412z M347.6,365.5h30.8
		c4.4,0,8.1-0.3,11.3-1c3.1-0.6,5.7-1.7,7.7-3.2c2-1.5,3.5-3.4,4.5-5.8c1-2.4,1.5-5.3,1.5-8.8c0-6.1-1.9-10.5-5.8-13.1
		c-3.9-2.6-9.6-3.9-17.3-3.9h-32.7V365.5z"/>
	<path class="st0" d="M684.9,412h-7.8l-10.9-28.5h-43.7c-1.6,4.5-3.3,9.2-5.1,14.2c-1.8,5-3.6,9.8-5.3,14.3h-6.9
		c2.9-7.7,5.8-15.2,8.6-22.5c2.8-7.3,5.7-14.7,8.5-21.9c2.8-7.3,5.6-14.6,8.5-21.9c2.8-7.3,5.7-14.8,8.6-22.5h9.2L684.9,412z
		 M664.4,378.4L643.8,329l-19.5,49.4H664.4z"/>
	<path class="st0" d="M953,366.9c0,30-14.9,45.1-44.8,45.1h-26.8v-88.7h26.8c15,0,26.2,3.6,33.6,10.8S953,352.3,953,366.9z
		 M946.1,366.9c0-5.8-0.6-11-1.7-15.6c-1.2-4.6-3.2-8.5-6.1-11.7c-2.9-3.2-6.8-5.7-11.7-7.3c-4.9-1.7-11.1-2.5-18.5-2.5h-20.2v75.8
		H908c7.4,0,13.5-0.9,18.4-2.6c4.9-1.7,8.8-4.3,11.7-7.6c2.9-3.3,5-7.4,6.2-12.1C945.5,378.5,946.1,373,946.1,366.9z"/>
	<path class="st0" d="M1219.1,412H1155v-88.8h61.9v6.5h-55.4v32.8h52v6.5h-52v36.5h57.6V412z"/>
</g>
</svg>
